ply
format ascii 1.0
comment created by platoply
element vertex 8
property float32 x
property float32 y
property float32 z
element face 6
property list uint8 int32 vertex_indices
end_header
-72.000000 68.000000 80.146439
0.000000 0.000000 0.000000
96.000000 35.000000 56.546490
24.000000 103.000000 136.692932
-88.000000 -113.000000 219.341629
-16.000000 -181.000000 139.195190
80.000000 -146.000000 195.741684
8.000000 -78.000000 275.888123
4 0 1 2 3 
4 5 4 7 6 
4 6 2 1 5 
4 3 7 4 0 
4 7 3 2 6 
4 5 1 0 4 
